<?xml version="1.0" standalone="no"?>
<!DOCTYPE svg PUBLIC "-//W3C//DTD SVG 20010904//EN"
 "http://www.w3.org/TR/2001/REC-SVG-20010904/DTD/svg10.dtd">
<svg version="1.0" xmlns="http://www.w3.org/2000/svg"
 width="150.000000pt" height="50.000000pt" viewBox="0 0 371.000000 133.000000"
 preserveAspectRatio="xMidYMid meet">

<g transform="translate(0.000000,133.000000) scale(0.100000,-0.100000)"
fill="#fff" stroke="none">
<path d="M2203 1178 c-25 -32 -43 -435 -25 -558 6 -36 11 -45 27 -45 18 0 21
8 25 85 4 72 11 97 40 154 35 67 67 103 82 88 5 -6 58 -296 58 -324 0 -5 11
-8 25 -8 19 0 25 5 25 21 0 38 -51 321 -61 340 -25 48 -106 29 -146 -34 -13
-21 -26 -37 -27 -35 -1 1 2 62 7 133 4 72 9 143 10 160 2 32 -22 46 -40 23z"/>
<path d="M320 1142 c-71 -35 -99 -136 -60 -217 24 -50 29 -56 117 -133 73 -64
113 -116 113 -146 0 -26 -93 -21 -157 8 -40 19 -54 31 -58 53 -4 15 -8 34 -11
41 -6 19 -32 14 -44 -9 -14 -25 0 -66 33 -97 56 -52 206 -87 257 -60 34 18 38
73 11 125 -27 50 -33 56 -122 135 -117 103 -138 171 -75 234 39 39 58 42 103
14 36 -22 52 -46 68 -109 12 -47 21 -56 44 -42 12 8 13 18 3 62 -17 73 -48
118 -96 140 -51 23 -82 24 -126 1z"/>
<path d="M1676 1135 c-3 -9 -6 -39 -6 -66 0 -47 -1 -49 -29 -49 -29 0 -42 -14
-34 -37 3 -7 15 -13 27 -13 22 0 23 -3 29 -143 7 -152 17 -198 50 -234 72 -80
209 60 224 228 7 73 -8 78 -39 12 -40 -89 -106 -183 -127 -183 -34 0 -44 38
-49 183 l-5 137 57 0 c92 0 146 33 146 89 0 32 -14 32 -66 -1 -27 -17 -68 -33
-92 -36 l-44 -5 4 64 c3 59 1 64 -18 67 -13 2 -24 -4 -28 -13z"/>
<path d="M2633 1143 c-7 -3 -13 -16 -13 -30 0 -26 38 -103 51 -103 19 0 69 73
69 102 0 29 -2 30 -31 24 -17 -3 -38 -2 -47 3 -9 4 -23 6 -29 4z"/>
<path d="M2007 1133 c-14 -13 -7 -55 16 -93 12 -22 25 -40 28 -40 4 0 21 16
38 35 47 54 40 124 -8 93 -16 -10 -23 -10 -33 0 -13 13 -31 16 -41 5z"/>
<path d="M2827 1134 c-3 -4 -9 -33 -13 -65 -6 -54 -8 -57 -33 -56 -22 2 -26
-2 -26 -23 0 -20 6 -26 28 -28 l27 -3 0 -132 c0 -142 9 -194 43 -240 19 -25
27 -28 61 -24 72 10 135 95 166 225 12 50 9 82 -7 82 -4 0 -28 -38 -52 -85
-55 -106 -91 -151 -114 -142 -28 11 -38 55 -44 190 l-6 127 59 0 c70 0 123 23
142 62 13 28 7 58 -12 58 -7 0 -30 -13 -52 -30 -22 -16 -59 -32 -82 -36 l-42
-7 0 67 c0 57 -2 66 -18 66 -10 0 -22 -3 -25 -6z"/>
<path d="M963 978 c-4 -7 -10 -146 -11 -308 -4 -262 -2 -297 12 -309 13 -11
19 -11 32 0 14 12 16 28 10 111 -4 54 -5 98 -2 98 3 0 16 -5 30 -11 65 -30
144 24 171 115 29 96 12 239 -32 284 -22 22 -30 24 -75 18 -29 -4 -59 -11 -69
-17 -14 -7 -19 -4 -24 11 -7 22 -30 26 -42 8z m168 -87 c22 -18 24 -27 24
-108 0 -70 -4 -95 -20 -121 -58 -95 -135 -7 -135 154 0 59 2 64 28 78 37 21
75 20 103 -3z"/>
<path d="M1536 982 c-2 -4 -14 -48 -27 -97 -23 -98 -41 -137 -88 -203 -36 -48
-59 -62 -72 -41 -5 8 -9 85 -9 172 0 143 -2 157 -17 157 -42 -1 -45 -10 -41
-178 3 -145 5 -163 24 -189 46 -61 137 -29 194 70 l31 52 -1 -80 c-1 -44 -1
-86 -1 -92 1 -18 38 -16 45 2 3 8 6 102 7 209 2 146 -1 199 -11 211 -14 17
-26 19 -34 7z"/>
<path d="M3402 973 c-5 -10 -17 -52 -27 -93 -20 -87 -61 -173 -103 -218 -58
-62 -66 -39 -64 161 l1 148 -27 -3 -27 -3 0 -172 c0 -168 1 -172 24 -197 39
-42 82 -36 140 19 27 25 53 58 57 73 7 21 10 7 14 -58 5 -77 7 -85 26 -88 29
-4 34 31 34 245 0 143 -3 174 -16 187 -19 20 -21 20 -32 -1z"/>
<path d="M640 934 c-42 -38 -70 -106 -70 -169 0 -17 -6 -37 -12 -44 -11 -10
-9 -16 7 -29 12 -9 27 -32 34 -50 18 -44 66 -82 102 -82 38 0 65 14 107 54 36
34 108 153 98 163 -3 3 -43 -33 -88 -81 -46 -47 -91 -86 -101 -86 -21 0 -80
55 -75 70 2 5 27 24 57 42 145 88 162 248 26 248 -38 0 -51 -6 -85 -36z m110
-22 c18 -14 20 -22 12 -43 -16 -40 -61 -88 -103 -110 l-39 -19 0 47 c0 60 16
91 59 120 41 28 43 28 71 5z"/>
<path d="M2026 938 c-10 -48 -16 -354 -8 -366 5 -8 18 -12 28 -10 18 3 19 17
25 188 3 102 3 191 1 198 -7 21 -41 14 -46 -10z"/>
<path d="M2646 944 c-3 -9 -6 -91 -6 -184 0 -93 3 -175 6 -184 8 -21 40 -21
48 0 12 31 7 359 -6 372 -17 17 -35 15 -42 -4z"/>
<path d="M2510 625 c-20 -24 -3 -55 30 -55 20 0 31 6 35 20 8 25 -10 50 -35
50 -10 0 -23 -7 -30 -15z"/>
<path d="M3515 445 c-5 -2 -55 -9 -110 -14 -55 -6 -271 -28 -480 -51 -209 -22
-443 -47 -520 -55 -399 -42 -811 -71 -1210 -85 -984 -33 -995 -34 -995 -50 0
-42 1293 -70 1620 -35 331 35 769 105 1385 219 318 60 386 74 350 74 -16 0
-34 -1 -40 -3z"/>
</g>
</svg>
